<mxfile host="app.diagrams.net" modified="2021-09-30T12:48:15.745Z" agent="5.0 (Windows)" etag="LOqejOy2zwf1U0sZ4njr" version="15.3.1" type="github">
  <diagram id="UJVtRwwvK5uKVyhLd9jK" name="Page-1">
    <mxGraphModel dx="1673" dy="885" grid="1" gridSize="10" guides="1" tooltips="1" connect="1" arrows="1" fold="1" page="1" pageScale="1" pageWidth="850" pageHeight="1100" math="0" shadow="0">
      <root>
        <mxCell id="0" />
        <mxCell id="1" parent="0" />
        <mxCell id="DPGvxR9k1o3TNHnTCT3K-2" value="&lt;b&gt;PEST Analysis&lt;/b&gt;" style="rhombus;whiteSpace=wrap;html=1;fillColor=#e1d5e7;strokeColor=#9673a6;" parent="1" vertex="1">
          <mxGeometry x="270" y="300" width="150" height="140" as="geometry" />
        </mxCell>
        <mxCell id="DPGvxR9k1o3TNHnTCT3K-7" value="The macro-environmental forces that are driving businesses to adopt online service purchase and delivery models" style="text;html=1;strokeColor=none;fillColor=none;align=center;verticalAlign=middle;whiteSpace=wrap;rounded=0;" parent="1" vertex="1">
          <mxGeometry x="90" y="20" width="430" height="20" as="geometry" />
        </mxCell>
        <mxCell id="IZx-ZiuW3YyfbtK3Tfff-4" value="&lt;div align=&quot;justify&quot;&gt;&lt;b&gt;&lt;font style=&quot;font-size: 12px&quot;&gt;Technological&lt;br&gt;&lt;/font&gt;&lt;/b&gt;&lt;/div&gt;&lt;div align=&quot;justify&quot;&gt;&lt;font style=&quot;font-size: 8px&quot;&gt;1. Proliferation of global consumer data and availability of data analytic tools encourages businesses to adopt online service models as a means to improve their business models and decisions&lt;br&gt;&lt;/font&gt;&lt;/div&gt;&lt;div align=&quot;justify&quot;&gt;&lt;font style=&quot;font-size: 8px&quot;&gt;&lt;br&gt;&lt;/font&gt;&lt;/div&gt;&lt;div align=&quot;justify&quot;&gt;&lt;font style=&quot;font-size: 8px&quot;&gt;2. The availability of advance infrastructure and expertise to support online business and transactions does influence the adoption rate of online service models among businesses&lt;br&gt;&lt;/font&gt;&lt;/div&gt;&lt;div align=&quot;justify&quot;&gt;&lt;font style=&quot;font-size: 8px&quot;&gt;&lt;br&gt;&lt;/font&gt;&lt;/div&gt;&lt;div align=&quot;justify&quot;&gt;&lt;font style=&quot;font-size: 8px&quot;&gt;3. the urge for a competitive advantage in the market tends to encourage businesses to adopt the latest and greatest technologies available&lt;br&gt;&lt;/font&gt;&lt;/div&gt;&lt;div align=&quot;justify&quot;&gt;&lt;font style=&quot;font-size: 8px&quot;&gt;&lt;/font&gt;&lt;br&gt;&lt;/div&gt;" style="rounded=0;whiteSpace=wrap;html=1;align=center;fillColor=#f8cecc;strokeColor=#b85450;" vertex="1" parent="1">
          <mxGeometry x="430" y="400" width="220" height="230" as="geometry" />
        </mxCell>
        <mxCell id="IZx-ZiuW3YyfbtK3Tfff-5" value="&lt;div align=&quot;justify&quot;&gt;&lt;b&gt;&lt;font style=&quot;font-size: 12px&quot;&gt;Economical&lt;br&gt;&lt;/font&gt;&lt;/b&gt;&lt;/div&gt;&lt;div align=&quot;justify&quot;&gt;&lt;font style=&quot;font-size: 8px&quot;&gt;1. Economic stability, whereby greater revenue growth correlates to higher economic activity and thus, increases the confidence of businesses to adopt online services.&lt;br&gt;&lt;br&gt;2. Phan (2020, p. 38) argued that greater revenue growth correlates to higher economic activity within a country due to higher consumer spending.&lt;br&gt;&lt;/font&gt;&lt;/div&gt;&lt;div align=&quot;justify&quot;&gt;&lt;font style=&quot;font-size: 8px&quot;&gt;&lt;br&gt;&lt;/font&gt;&lt;/div&gt;&lt;div align=&quot;justify&quot;&gt;&lt;font style=&quot;font-size: 8px&quot;&gt;3. The trend towards globalisation, through the presence of a single international market, increases the likeliness of businesses to adopt online services to serve customers all over the world.&lt;br&gt;&lt;/font&gt;&lt;/div&gt;&lt;div align=&quot;justify&quot;&gt;&lt;br&gt;&lt;/div&gt;" style="rounded=0;whiteSpace=wrap;html=1;align=center;fillColor=#d5e8d4;strokeColor=#82b366;" vertex="1" parent="1">
          <mxGeometry x="430" y="60" width="220" height="280" as="geometry" />
        </mxCell>
        <mxCell id="IZx-ZiuW3YyfbtK3Tfff-6" value="&lt;div align=&quot;justify&quot;&gt;&lt;font style=&quot;font-size: 12px&quot;&gt;&lt;b&gt;Political&lt;/b&gt;&lt;br&gt;&lt;/font&gt;&lt;/div&gt;&lt;div align=&quot;justify&quot;&gt;&lt;font style=&quot;font-size: 8px&quot;&gt;1. Government endorsement through national policies, such as grants towards businesses.&lt;/font&gt;&lt;/div&gt;&lt;div align=&quot;justify&quot;&gt;&lt;font style=&quot;font-size: 8px&quot;&gt;&lt;br&gt;&lt;/font&gt;&lt;/div&gt;&lt;div align=&quot;justify&quot;&gt;&lt;font style=&quot;font-size: 8px&quot;&gt;2. Examples of such include the awarding of grants towards digitalisation adoption among SMEs by the Malaysian government alongside Bank Simpanan Nasional and Malaysia Digital Economy Corporation (MDEC) (MDEC 2019).&lt;/font&gt;&lt;/div&gt;&lt;div align=&quot;justify&quot;&gt;&lt;font style=&quot;font-size: 8px&quot;&gt;&amp;nbsp;&lt;/font&gt;&lt;/div&gt;&lt;div align=&quot;justify&quot;&gt;&lt;font style=&quot;font-size: 8px&quot;&gt;3. encouraging SMEs in project tenders could accelerate digitalisation efforts as seen by the Mauritius’ government’s effort in giving a higher percentage of tenders to SMEs as opposed to large corporations (Antoo, Gobin &amp;amp; Cadersaib 2015).&lt;/font&gt;&lt;/div&gt;&lt;div align=&quot;justify&quot;&gt;&lt;font style=&quot;font-size: 8px&quot;&gt;&lt;br&gt;&lt;/font&gt;&lt;/div&gt;&lt;div align=&quot;justify&quot;&gt;&lt;font style=&quot;font-size: 8px&quot;&gt;4. Legislature structures that ensure the business interest protection and oversee internet development.&lt;/font&gt;&lt;br&gt;&lt;br&gt;&lt;/div&gt;" style="rounded=0;whiteSpace=wrap;html=1;align=center;fillColor=#dae8fc;strokeColor=#6c8ebf;" vertex="1" parent="1">
          <mxGeometry x="30" y="60" width="220" height="280" as="geometry" />
        </mxCell>
        <mxCell id="IZx-ZiuW3YyfbtK3Tfff-7" value="&lt;div align=&quot;justify&quot;&gt;&lt;b&gt;&lt;font style=&quot;font-size: 12px&quot;&gt;Social &lt;br&gt;&lt;/font&gt;&lt;/b&gt;&lt;/div&gt;&lt;div align=&quot;justify&quot;&gt;&lt;font style=&quot;font-size: 8px&quot;&gt;1. The shift of consumer shopping trends towards online shopping is known to be the main driving force among businesses.&lt;/font&gt;&lt;/div&gt;&lt;div align=&quot;justify&quot;&gt;&lt;font style=&quot;font-size: 8px&quot;&gt;2. It was reported that online retail sales in Malaysia had increased by 28.9% in April 2020 despite the drop in wholesale and retail trade (Malaysia’s online retail sales up 28.9% in April 2020)&lt;br&gt;&lt;/font&gt;&lt;/div&gt;&lt;div align=&quot;justify&quot;&gt;&lt;font style=&quot;font-size: 8px&quot;&gt;3. Leu and Masri (2020, p.404) argued that such drastic changes in purchasing trends would encourage firms to kick start their digital business as a means to catch up. &lt;br&gt;&lt;/font&gt;&lt;/div&gt;&lt;div align=&quot;justify&quot;&gt;&lt;font style=&quot;font-size: 8px&quot;&gt;4. The growing use of mobile technology in society encourages consumers to take part in online shopping more often.&lt;br&gt;&lt;/font&gt;&lt;/div&gt;&lt;div align=&quot;justify&quot;&gt;&lt;br&gt;&lt;/div&gt;" style="rounded=0;whiteSpace=wrap;html=1;align=center;fillColor=#fff2cc;strokeColor=#d6b656;" vertex="1" parent="1">
          <mxGeometry x="30" y="400" width="220" height="230" as="geometry" />
        </mxCell>
        <mxCell id="IZx-ZiuW3YyfbtK3Tfff-26" value="&lt;div align=&quot;center&quot;&gt;&lt;font size=&quot;1&quot;&gt;&lt;b style=&quot;font-size: 20px&quot;&gt;Strengths&lt;/b&gt;&lt;/font&gt;&lt;/div&gt;&lt;div align=&quot;left&quot;&gt;&lt;ol&gt;&lt;li&gt;Uniqlo offers a unique selling point, which is that it is positioned as a lifestyle-oriented clothing brand. &lt;/li&gt;&lt;li&gt;Danziger (2021) explained that Uniqlo’s clothing are known to be comfortable and easy-to-wear as opposed to being fashion driven. &lt;/li&gt;&lt;li&gt;The company is known to utilise technology in its clothing design through its HEATTECH and AIRism line, which aims to ensure comfort in both cool and hot environments respectively (Danziger 2021). &lt;/li&gt;&lt;li&gt;Uniqlo products are known to be affordable for the quality it gives, which appeals to many segments of the consumer market (Mirza et. al. 2020, p. 1).&lt;/li&gt;&lt;li&gt;The Brand is known to have invested heavily in e-commerce as opposed to their physical stores since 2016 and have plans to expand their online business (Danziger 2021).&lt;/li&gt;&lt;li&gt; The company has been pouring various effort in strengthening its e-commerce business through the implementation of frameworks to fit into digital society (Leu &amp;amp; Masri 2021). &lt;/li&gt;&lt;/ol&gt;&lt;/div&gt;" style="whiteSpace=wrap;html=1;aspect=fixed;align=left;fillColor=#dae8fc;strokeColor=#6c8ebf;" vertex="1" parent="1">
          <mxGeometry x="20" y="730" width="350" height="350" as="geometry" />
        </mxCell>
        <mxCell id="IZx-ZiuW3YyfbtK3Tfff-34" value="&lt;div&gt;&lt;div align=&quot;center&quot;&gt;&lt;font size=&quot;1&quot;&gt;&lt;b style=&quot;font-size: 20px&quot;&gt;Weaknesses&lt;/b&gt;&lt;/font&gt;&lt;/div&gt;&lt;div align=&quot;left&quot;&gt;&lt;ol&gt;&lt;li&gt;&lt;span&gt;The Uniqlo brand still seemsto struggle within the western markets, such as North America. Chitrakorn(2021) reported that there are only 47 Uniqlo stores in the US, despite itbeing the world’s largest clothing and accessories market.&lt;/span&gt;&lt;/li&gt;&lt;li&gt;&lt;span&gt;Thus, the differencein brand presence may inhibit its online business performance as it tries to serve each market with varying levels of consumer demand.&lt;br&gt;&lt;/span&gt;&lt;/li&gt;&lt;li&gt;&lt;span&gt;The Uniqlo brand is still heavily reliant on its specialty stores, which allowsfull control of its supply chain process (Takada 2017). Although this traitensures the quality of its products, it does inhibit its ability to respondquickly to consumers in the digital age. &lt;br&gt;&lt;/span&gt;&lt;/li&gt;&lt;li&gt;&lt;span&gt;Plus, the Uniqlo’s online storeinfrastructure may be unable to handle large consumer traffic, which couldinhibit sales overall. During the recent sale of Uniqlo’s washable masks, theUniqlo online store had suffered a crash due to a surge in users, causingconsumers to queue at their physical stores (&lt;i&gt;Japan shoppers queue, crashwebsite for Uniqlo&#39;s washable masks &lt;/i&gt;2020). &lt;br&gt;&lt;/span&gt;&lt;/li&gt;&lt;/ol&gt;&lt;/div&gt;&lt;/div&gt;" style="whiteSpace=wrap;html=1;aspect=fixed;align=left;fillColor=#ffe6cc;strokeColor=#d79b00;" vertex="1" parent="1">
          <mxGeometry x="370" y="730" width="350" height="350" as="geometry" />
        </mxCell>
        <mxCell id="IZx-ZiuW3YyfbtK3Tfff-35" value="&lt;div align=&quot;center&quot;&gt;&lt;font size=&quot;1&quot;&gt;&lt;b style=&quot;font-size: 20px&quot;&gt;Opportunities&lt;/b&gt;&lt;/font&gt;&lt;/div&gt;&lt;div&gt;&lt;div&gt;&lt;br&gt;&lt;div align=&quot;left&quot;&gt;&lt;ol&gt;&lt;li&gt;&lt;span&gt;A purely online business would not only remove the financial obligations ofmanning a physical store, but allows for greater control when it comes totailoring products based on different consumer characteristics using Big Datatechnology. &lt;br&gt;&lt;/span&gt;&lt;/li&gt;&lt;li&gt;&lt;span&gt;As the Uniqlo brand already operates its own online web store andmobile application, the amount of data amass from these platforms allows thecompany to gain better insights towards consumer spending, which could be usedto improve customer services and online purchasing processes.&lt;/span&gt;&lt;/li&gt;&lt;li&gt;&lt;span&gt; Furthermore, supportby various governments policies around the world towards e-commerce, helps witheasing the barrier of entry into online retailing (Li, Shia &amp;amp; Badiane 2020,p.8). &lt;br&gt;&lt;/span&gt;&lt;/li&gt;&lt;li&gt;&lt;span&gt;With that, the shift to becoming a purely online provider could be aseamless one for Uniqlo as it already has most of the infrastructure in place,with the support of government policies.&lt;/span&gt;&lt;/li&gt;&lt;/ol&gt;&lt;/div&gt;&lt;/div&gt;&lt;/div&gt;" style="whiteSpace=wrap;html=1;aspect=fixed;align=left;fillColor=#d5e8d4;strokeColor=#82b366;" vertex="1" parent="1">
          <mxGeometry x="20" y="1080" width="350" height="350" as="geometry" />
        </mxCell>
        <mxCell id="IZx-ZiuW3YyfbtK3Tfff-36" value="&lt;div align=&quot;center&quot;&gt;&lt;font size=&quot;1&quot;&gt;&lt;b style=&quot;font-size: 20px&quot;&gt;Threats&lt;/b&gt;&lt;/font&gt;&lt;br&gt;&lt;/div&gt;&lt;div&gt;&lt;div&gt;&lt;div align=&quot;left&quot;&gt;&lt;ol&gt;&lt;/ol&gt;&lt;ol&gt;&lt;li&gt;&lt;span&gt;Uniqlo faces threats from other fast fashion brands, such as Shein and Zara, that have their own online stores, making it a challenge to cement a leadership positionin online clothing sales. &lt;br&gt;&lt;/span&gt;&lt;/li&gt;&lt;li&gt;&lt;span&gt;Li, Shia and Badiane (2020, p.8) pointedout the rapid development of e-commerce, which brings uncertainty towardsonline businesses. &lt;br&gt;&lt;/span&gt;&lt;/li&gt;&lt;li&gt;&lt;span&gt;With that, Uniqlo may face trouble when trying to tailor itsonline business to fit different markets with different legislative structures.&lt;/span&gt;&lt;/li&gt;&lt;li&gt;&lt;span&gt;Furthermore, consumers may be discouraged to spend at Uniqlo, knowing that theproducts may take longer periods to arrive. &lt;br&gt;&lt;/span&gt;&lt;/li&gt;&lt;li&gt;&lt;span&gt;Leu and Masri (2020, p. 408)explains about the current online-to-offline links which enable consumers toorder Uniqlo products online and collect them at the retail stores. &lt;br&gt;&lt;/span&gt;&lt;/li&gt;&lt;li&gt;&lt;span&gt;Shifting to a purely online business, consumers are stripped off the option to collecttheir items at the nearest retail store, forcing to opt for longer waitingtimes.&lt;/span&gt;&lt;/li&gt;&lt;/ol&gt;&lt;/div&gt;&lt;/div&gt;&lt;/div&gt;" style="whiteSpace=wrap;html=1;aspect=fixed;align=left;fillColor=#f8cecc;strokeColor=#b85450;" vertex="1" parent="1">
          <mxGeometry x="370" y="1080" width="350" height="350" as="geometry" />
        </mxCell>
      </root>
    </mxGraphModel>
  </diagram>
</mxfile>
